<svg xmlns="http://www.w3.org/2000/svg" viewBox="0 0 700 420" role="img" aria-label="Clean cutting power review visual">
  <defs>
    <linearGradient id="bg" x1="0" y1="0" x2="1" y2="1">
      <stop offset="0" stop-color="#071f1d"/>
      <stop offset=".58" stop-color="#0f0f0f"/>
      <stop offset="1" stop-color="#064f4f"/>
    </linearGradient>
    <linearGradient id="teal" x1="0" y1="0" x2="1" y2="0">
      <stop offset="0" stop-color="#0A9797"/>
      <stop offset="1" stop-color="#18C4C4"/>
    </linearGradient>
    <filter id="shadow" x="-20%" y="-20%" width="140%" height="140%">
      <feDropShadow dx="0" dy="22" stdDeviation="18" flood-color="#000" flood-opacity=".45"/>
    </filter>
  </defs>
  <rect width="700" height="420" fill="url(#bg)"/>
  <path d="M0 350 C130 300 206 383 335 332 C477 276 535 278 700 236 L700 420 L0 420Z" fill="#0a9797" opacity=".12"/>
  <g opacity=".16" stroke="#18C4C4" stroke-width="1">
    <path d="M54 48H646M54 96H646M54 144H646M54 192H646M54 240H646M54 288H646M54 336H646"/>
    <path d="M92 28V388M172 28V388M252 28V388M332 28V388M412 28V388M492 28V388M572 28V388"/>
  </g>
  <circle cx="180" cy="205" r="92" fill="#f5f5f5" opacity=".08"/>
  <path d="M106 242 C142 178 221 135 294 142 C338 146 357 172 338 206 C306 264 220 306 150 294 C109 287 91 270 106 242Z" fill="#d8dedc" opacity=".28"/>
  <path d="M184 236 C235 218 286 210 341 214" fill="none" stroke="#b8b8b8" stroke-width="9" stroke-linecap="round" opacity=".5"/>
  <g filter="url(#shadow)" transform="translate(337 132) rotate(-18)">
    <rect x="0" y="78" width="184" height="62" rx="18" fill="#101313"/>
    <rect x="20" y="88" width="118" height="42" rx="13" fill="url(#teal)"/>
    <rect x="138" y="90" width="74" height="38" rx="9" fill="#1f1f1f"/>
    <path d="M156 82 v-34 M170 82 v-34 M184 82 v-34 M198 82 v-34" stroke="#f5f5f5" stroke-width="7" stroke-linecap="round"/>
    <circle cx="77" cy="109" r="17" fill="#0f0f0f" stroke="#18C4C4" stroke-width="5"/>
  </g>
  <text x="40" y="62" fill="#18C4C4" font-family="Montserrat,Arial,sans-serif" font-size="18" font-weight="900" letter-spacing="4">VERIFIED RESULT</text>
  <text x="40" y="362" fill="#f5f5f5" font-family="Montserrat,Arial,sans-serif" font-size="34" font-weight="900">Clean cutting power</text>
</svg>
